<?xml version="1.0" encoding="UTF-8"?>
<svg id="_レイヤー_2" data-name="レイヤー 2" xmlns="http://www.w3.org/2000/svg" xmlns:xlink="http://www.w3.org/1999/xlink" viewBox="0 0 3738.48 1178">
  <defs>
    <style>
      .cls-1 {
        fill: none;
      }

      .cls-2 {
        clip-path: url(#clippath);
      }

      .cls-3 {
        fill: #af1918;
      }
    </style>
    <clipPath id="clippath">
      <path class="cls-1" d="m788.99,244.62h252.08v933.38h-252.08V244.62Zm770.68,0l-98.86,562.38-87.94-562.38h-264.78l214,933.38h256.92l254.5-933.38h-273.85ZM352.72,807l-87.94-562.38H0l214,933.38h256.92l254.5-933.38h-273.85l-98.86,562.38Zm2547.99-87.55l-179.64-474.83h-240.6v933.38h236.88v-494.42l179.64,494.42h240.6V244.62h-236.87v474.83Zm441.2-203.18v661.73h252.09V468.3h144.48v-223.68h-535.61v223.68h139.04v47.97Zm-897.45,661.73h-260.55l-17.25-118.48h-172.41l-19.51,118.48h-260.55l224.28-933.38h308.31l197.68,933.38Zm-306.92-318.58l-51.78-355.74-58.56,355.74h110.34Z"/>
    </clipPath>
  </defs>
  <g id="_ロゴ" data-name="ロゴ">
    <g>
      <g>
        <polygon class="cls-1" points="2027.2 859.42 2137.54 859.42 2085.76 503.68 2027.2 859.42"/>
        <g class="cls-2">
          <rect class="cls-3" x="-143.51" y="78.12" width="3948.6" height="1330.82"/>
        </g>
      </g>
      <g>
        <path class="cls-3" d="m1519.06,151.35v9.37h-32.25V11.17h134.77v149.19h-32.79v-9.01h-69.73Zm69.73-84.33v-27.74h-69.73v27.74h69.73Zm0,56.22v-29.19h-69.73v29.19h69.73Z"/>
        <path class="cls-3" d="m1827.26,101.44v14.78h-23.06v5.58h23.06v14.78h-23.06v5.59h32.25v20.18h-73.15v4.86h-27.39v-47.57c-2.7,2.88-3.6,3.61-5.94,5.94-1.98-2.52-2.71-3.24-5.77-6.3v26.31h-22.7v-6.49h-6.49v12.98h-22.7V7.03h51.89v88.46c12.79-12.61,17.65-23.6,20-28.83l24.68,5.23c1.44.35,3.42.89,3.42,2.16,0,1.98-2.52,2.17-4.51,2.34l-.72,1.26h12.07c3.25-5.05,4.51-7.03,6.67-12.07h-2.16v-18.92h27.39v-5.4h-25.4v-15.32h25.4v-5.23h-27.39V3.42h50.99v66.13h-23.61v-3.96h-23.42l23.78,6.66c1.08.36,1.98,1.26,1.98,2.17,0,1.44-1.8,1.62-4.68,1.62-.36.73-.54.9-.9,1.63h27.56v18.38h-31.17v5.4h23.06Zm-125.76-42.16v-27.02h-6.49v27.02h6.49Zm0,53.87v-28.1h-6.49v28.1h6.49Zm29.73-71.88v-15.32h25.76v-5.23h-29V3.42h51.89v65.76h-22.89v-3.6h-29v-18.92h29v-5.4h-25.76Zm46.12,60.18v-5.4h-14.06v5.4h14.06Zm0,20.36v-5.58h-14.06v5.58h14.06Zm-14.06,14.78v5.59h14.06v-5.59h-14.06Z"/>
        <path class="cls-3" d="m1978.72,109.91c1.08.9,1.44,2.16,1.44,3.06,0,1.8-1.98,1.8-2.88,1.8-.54,0-3.42-.18-3.96-.18-3.61,3.96-4.51,4.68-11.71,11.71,7.03,6.3,15.67,11.17,24.5,15.86-7.03,7.38-9.91,10.63-14.06,17.47-4.68-3.6-7.38-5.77-10.45-8.83-2.7,13.69-10.45,16.57-31.17,16.76-.9-3.78-1.98-7.21-6.3-14.06-10.45,6.13-12.97,7.39-15.67,8.47-3.78-5.04-5.59-7.21-10.45-10.63-2.34,8.11-4.14,12.07-6.13,16.22-9.55-7.75-13.69-9.73-24.32-14.24,3.97-8.65,11.35-25.41,11.35-70.8V27.93h32.25V.54l29.01.54c1.8,0,4.14.73,4.14,2.52,0,1.09-1.08,1.99-4.14,3.61v.73h28.83v14.95h-28.83v5.04h37.65v30.81h-20.18v.36c7.21,3.25,11.35,3.78,14.78,4.32-3.06,10.09-5.95,15.68-18.38,15.68h-25.58c-14.6,0-15.5-6.13-15.5-12.97l-7.57.72v16.39h72.61v13.87h-14.77l15.49,12.8Zm-73.33,31.35c-1.26-2.17-1.8-3.06-3.78-5.77-1.26,7.03-2.52,12.07-2.88,13.15,3.6-1.26,21.08-8.46,36.57-19.99-.9-1.8-1.8-3.25-2.34-4.51-3.06,2.53-15.5,11.72-27.57,17.12Zm2.52-22.89c-2.16-3.78-2.34-4.14-3.42-5.94-.36,6.3-.72,9.19-1.44,14.05,10.45-4.32,18.02-8.65,23.42-11.88-.9-1.26-1.26-1.63-2.52-3.25-8.29,4.32-12.07,5.58-16.04,7.02Zm-3.06-21.26c0,5.95,0,6.49-.18,8.11,7.75-1.8,15.13-4.69,20.54-8.11h-20.36Zm8.11-50.81h-7.57v8.29l7.57-.73v-7.57Zm15.13,104.68c4.69.73,7.21.73,7.93.73,4.32,0,5.04-3.25,5.04-5.77,0-1.26-.18-2.71-.54-4.15-3.97,3.42-6.49,5.4-12.43,9.19Zm8.47-99.09l17.66-1.62v-3.97h-17.66v5.59Zm8.11,16.76c4.15,0,5.04-2.71,5.95-7.03l-14.06,1.26c0,3.78,0,5.77,3.61,5.77h4.5Zm2.34,28.47c-2.88,2.17-3.6,2.71-5.23,3.61,4.32,5.23,5.59,7.21,7.39,9.54,7.93-7.92,10.09-11.17,11.35-13.15h-13.51Zm58.73-73.51c1.08,0,3.25.18,3.25,2.34s-1.26,2.88-4.14,4.15v97.11h-22.52V22.35l23.42,1.26Zm31.71-22.52c2.71.19,3.97,1.09,3.97,2.71,0,1.44-1.08,2.16-4.32,4.15v136.92c0,18.56-8.65,23.96-37.83,23.42-.36-10.44-5.95-22.16-11.35-30.99,5.95,1.08,12.07,2.16,15.5,2.16,5.58,0,6.3-2.16,6.3-7.75V0l27.74,1.08Z"/>
        <path class="cls-3" d="m2153.42,117.48c-7.57,8.83-14.23,15.49-22.16,21.26-4.69-5.59-11.71-11.35-15.5-12.97-3.24,1.26-27.93,10.09-28.83,10.44,0,1.26-.36,5.41-3.24,5.41-1.62,0-1.98-1.26-2.52-4.32l-5.95-28.83c9.91-1.8,17.84-3.97,19.28-4.32v-39.1h-17.48v-27.02h17.48V4.15l28.83,1.44c1.98.18,3.96.54,3.96,2.16s-.9,2.17-3.96,3.78v26.48h14.6v27.02h-14.6v29.92c5.95-2.34,6.66-2.53,8.83-3.42v-19.46h111.53v20h-70.09c-1.44,2.7-2.52,4.32-3.42,5.4h71.71c0,66.67-8.47,69.73-35.5,69.73-2.34,0-3.96-.18-6.66-.36-.9-7.38-3.25-14.41-4.87-18.74-5.77,8.29-10.99,13.87-18.38,21.62-6.84-6.12-10.81-8.46-20.36-12.97,13.87-9.01,27.39-25.94,34.96-39.27h-7.39c-12.43,22.88-34.96,41.08-46.12,47.92-5.4-6.13-10.99-10.81-17.66-15.32,23.06-10.44,36.76-26.84,40.72-32.6h-7.21Zm-15.32-25.41c-.72,5.94-.54,10.27-.72,13.51,3.78-3.97,7.93-9.37,10.81-13.51h-10.09Zm93.69-25.23h-87.74V3.6h87.74v63.24Zm-27.93-38.02v-5.77h-32.25v5.77h32.25Zm-32.25,14.41v6.13h32.25v-6.13h-32.25Zm40,74.24c-2.7,6.84-5.94,13.69-12.07,23.78,2.52.18,4.32.54,6.49.54,3.97,0,5.23-.9,6.3-3.96,1.62-4.69,2.34-9.55,3.06-20.36h-3.78Z"/>
      </g>
    </g>
  </g>
</svg>
